<svg height="1080" width="1198" xmlns="http://www.w3.org/2000/svg"> 
<path d="M 0 1069 Z" fill="none" stroke="black" stroke-width="1" />
<path d="M 469 1059 L469 1060 Z" fill="none" stroke="black" stroke-width="1" />
<path d="M 16 1001 Z" fill="none" stroke="black" stroke-width="1" />
<path d="M 525 896 L524 897 L521 897 L520 898 L518 898 L517 899 L516 899 L515 900 L514 900 L512 902 L511 902 L509 904 L508 904 L502 910 L502 911 L499 914 L499 915 L498 916 L498 917 L497 918 L497 919 L496 920 L496 921 L495 922 L495 925 L494 926 L494 929 L493 930 L493 943 L494 944 L494 948 L495 949 L495 951 L496 952 L496 953 L497 954 L497 955 L498 956 L498 957 L499 958 L499 959 L502 962 L502 963 L507 968 L508 968 L511 971 L512 971 L513 972 L514 972 L515 973 L516 973 L517 974 L518 974 L519 975 L521 975 L522 976 L525 976 L526 977 L539 977 L540 976 L544 976 L545 975 L547 975 L548 974 L549 974 L550 973 L551 973 L552 972 L553 972 L555 970 L556 970 L560 966 L561 966 L562 965 L562 964 L565 961 L565 960 L567 958 L567 957 L568 956 L568 955 L569 954 L569 953 L570 952 L570 950 L571 949 L571 947 L572 946 L572 941 L573 940 L573 933 L572 932 L572 927 L571 926 L571 923 L570 922 L570 921 L569 920 L569 919 L568 918 L568 917 L567 916 L567 915 L566 914 L566 913 L562 909 L562 908 L559 905 L558 905 L555 902 L554 902 L553 901 L552 901 L551 900 L550 900 L549 899 L548 899 L547 898 L545 898 L544 897 L541 897 L540 896 Z" fill="none" stroke="black" stroke-width="1" />
<path d="M 548 972 L549 971 L550 972 L549 973 Z" fill="none" stroke="black" stroke-width="1" />
<path d="M 549 971 L550 970 L551 970 L552 971 L551 972 L550 972 Z" fill="none" stroke="black" stroke-width="1" />
<path d="M 551 970 L552 969 L553 970 L552 971 Z" fill="none" stroke="black" stroke-width="1" />
<path d="M 556 967 L557 966 L558 967 L557 968 Z" fill="none" stroke="black" stroke-width="1" />
<path d="M 557 966 L558 965 L559 966 L558 967 Z" fill="none" stroke="black" stroke-width="1" />
<path d="M 558 965 L559 964 L560 965 L559 966 Z" fill="none" stroke="black" stroke-width="1" />
<path d="M 527 922 L528 921 L538 921 L539 922 L540 922 L541 923 L542 923 L547 928 L547 929 L548 930 L548 932 L549 933 L549 941 L548 942 L548 943 L547 944 L547 945 L541 951 L540 951 L539 952 L538 952 L537 953 L529 953 L528 952 L527 952 L526 951 L525 951 L519 945 L519 944 L518 943 L518 941 L517 940 L517 933 L518 932 L518 930 L519 929 L519 928 L524 923 L525 923 L526 922 Z" fill="none" stroke="black" stroke-width="1" />
<path d="M 129 880 Z" fill="none" stroke="black" stroke-width="1" />
<path d="M 181 862 L180 863 L177 863 L176 864 L174 864 L173 865 L172 865 L171 866 L170 866 L169 867 L168 867 L166 869 L165 869 L156 878 L156 879 L154 881 L154 882 L153 883 L153 884 L152 885 L152 887 L151 888 L151 890 L150 891 L150 894 L149 895 L149 909 L150 910 L150 913 L151 914 L151 916 L152 917 L152 919 L153 920 L153 921 L155 923 L155 924 L156 925 L156 926 L164 934 L165 934 L167 936 L168 936 L170 938 L171 938 L172 939 L174 939 L175 940 L177 940 L178 941 L181 941 L182 942 L194 942 L195 941 L198 941 L199 940 L201 940 L202 939 L204 939 L205 938 L206 938 L207 937 L208 937 L210 935 L211 935 L221 925 L221 924 L222 923 L222 922 L223 921 L223 920 L224 919 L224 918 L225 917 L225 916 L226 915 L226 912 L227 911 L227 907 L228 906 L228 898 L227 897 L227 893 L226 892 L226 889 L225 888 L225 887 L224 886 L224 884 L223 883 L223 882 L221 880 L221 879 L218 876 L218 875 L214 871 L213 871 L210 868 L209 868 L208 867 L207 867 L206 866 L205 866 L204 865 L203 865 L202 864 L200 864 L199 863 L195 863 L194 862 Z" fill="none" stroke="black" stroke-width="1" />
<path d="M 183 887 L184 886 L191 886 L192 887 L194 887 L195 888 L196 888 L201 893 L201 894 L202 895 L202 896 L203 897 L203 899 L204 900 L204 904 L203 905 L203 908 L202 909 L202 910 L196 916 L195 916 L194 917 L192 917 L191 918 L185 918 L184 917 L182 917 L181 916 L180 916 L175 911 L175 910 L173 908 L173 906 L172 905 L172 900 L173 899 L173 896 L174 895 L174 894 L176 892 L176 891 L178 889 L179 889 L181 887 Z" fill="none" stroke="black" stroke-width="1" />
<path d="M 671 811 Z" fill="none" stroke="black" stroke-width="1" />
<path d="M 893 798 L892 799 L889 799 L888 800 L883 800 L882 799 L880 799 L879 800 L879 802 L878 803 L874 803 L873 802 L872 802 L871 801 L869 801 L869 805 L868 806 L867 806 L866 807 L864 807 L862 805 L859 805 L859 808 L860 809 L857 812 L855 812 L853 810 L851 810 L850 811 L850 813 L851 814 L848 817 L846 817 L845 816 L844 816 L843 815 L842 815 L841 816 L841 820 L838 823 L837 822 L836 822 L835 821 L834 821 L833 820 L832 821 L832 826 L831 827 L830 827 L829 828 L828 828 L826 826 L823 826 L823 829 L824 830 L822 832 L821 832 L820 833 L819 833 L818 832 L817 832 L816 831 L815 831 L814 832 L814 834 L815 835 L812 838 L809 838 L807 836 L806 836 L805 837 L805 839 L806 840 L803 843 L800 843 L799 842 L797 842 L796 843 L796 844 L797 845 L797 846 L795 848 L794 848 L793 849 L792 849 L791 848 L790 848 L789 847 L788 847 L787 848 L787 850 L788 851 L785 854 L782 854 L781 853 L779 853 L778 854 L779 855 L779 857 L777 859 L776 859 L775 860 L774 860 L773 859 L772 859 L771 858 L770 858 L770 862 L768 864 L767 864 L766 865 L764 865 L763 864 L762 864 L761 865 L761 867 L759 869 L758 869 L757 870 L756 870 L755 871 L754 870 L751 873 L750 873 L749 874 L748 874 L746 876 L745 876 L744 877 L743 877 L741 879 L740 879 L739 880 L738 880 L736 882 L735 882 L734 883 L733 883 L731 885 L730 885 L729 886 L728 886 L727 887 L726 887 L724 889 L723 889 L722 890 L721 890 L719 892 L718 892 L717 893 L716 893 L714 895 L713 895 L712 896 L711 896 L709 898 L708 898 L707 899 L706 899 L704 901 L703 901 L702 902 L700 902 L699 903 L696 903 L695 902 L691 902 L690 901 L690 900 L688 898 L688 897 L686 895 L686 894 L682 890 L681 890 L679 892 L679 894 L680 895 L680 897 L681 898 L681 907 L682 908 L682 911 L683 912 L683 914 L684 915 L684 916 L685 917 L686 917 L688 919 L688 921 L689 922 L689 924 L690 925 L690 926 L695 931 L696 931 L698 933 L699 933 L701 935 L702 935 L703 936 L703 937 L704 938 L704 939 L705 940 L706 940 L707 939 L709 939 L709 938 L710 937 L709 936 L709 934 L708 933 L708 932 L707 931 L707 930 L706 929 L706 928 L705 927 L705 924 L706 923 L706 922 L707 921 L707 920 L708 919 L708 918 L710 916 L711 916 L713 914 L714 914 L715 913 L716 913 L718 911 L719 911 L720 910 L721 910 L723 908 L724 908 L725 907 L726 907 L728 905 L729 905 L730 904 L731 904 L733 902 L734 902 L735 901 L736 901 L738 899 L739 899 L740 898 L741 898 L743 896 L744 896 L745 895 L746 895 L748 893 L749 893 L751 891 L752 891 L753 890 L754 890 L755 889 L756 889 L758 887 L759 887 L761 885 L762 885 L764 883 L765 883 L766 884 L767 883 L767 882 L770 879 L771 879 L772 878 L775 878 L776 879 L776 876 L778 874 L779 874 L781 872 L783 872 L785 874 L786 874 L785 873 L785 871 L788 868 L789 868 L790 867 L792 867 L794 869 L794 866 L798 862 L799 862 L800 861 L801 861 L803 863 L803 860 L805 858 L806 858 L808 856 L810 856 L812 858 L813 858 L812 857 L812 855 L815 852 L816 852 L817 851 L819 851 L820 852 L821 852 L822 853 L821 852 L821 849 L822 848 L823 848 L825 846 L826 846 L827 845 L828 845 L831 848 L830 847 L830 844 L832 842 L833 842 L834 841 L835 841 L836 840 L837 840 L840 843 L839 842 L839 839 L842 836 L843 836 L844 835 L846 835 L848 837 L849 837 L848 836 L848 834 L852 830 L854 830 L855 829 L858 832 L857 831 L857 828 L858 827 L859 827 L861 825 L862 825 L863 824 L864 824 L867 827 L867 826 L866 825 L866 823 L868 821 L869 821 L870 820 L871 820 L872 819 L873 819 L876 822 L876 821 L875 820 L875 818 L877 816 L877 815 L879 813 L880 813 L881 812 L884 815 L883 814 L883 811 L889 805 L890 806 L890 804 L893 801 L893 800 L894 799 L894 798 Z" fill="none" stroke="black" stroke-width="1" />
<path d="M 507 757 L504 760 L503 760 L501 762 L498 762 L498 763 L499 764 L493 770 L492 770 L491 769 L489 769 L491 771 L491 772 L488 775 L488 776 L486 778 L484 778 L483 777 L483 778 L484 779 L484 782 L481 785 L481 786 L480 787 L478 787 L477 786 L477 787 L478 788 L478 791 L476 793 L476 794 L474 796 L472 796 L471 795 L471 796 L473 798 L472 799 L472 800 L471 801 L471 802 L468 805 L466 805 L465 804 L465 805 L467 807 L467 808 L466 809 L466 810 L462 814 L460 814 L459 813 L460 814 L460 815 L461 816 L461 817 L460 818 L460 819 L458 821 L458 822 L457 823 L453 823 L455 825 L455 827 L453 829 L453 830 L451 832 L448 832 L448 833 L449 834 L449 836 L447 838 L447 839 L445 841 L442 841 L443 842 L443 845 L442 846 L442 847 L439 850 L436 850 L437 851 L437 855 L432 860 L431 859 L430 859 L431 860 L431 861 L432 862 L431 863 L431 864 L429 866 L429 867 L428 868 L427 868 L426 869 L425 869 L424 868 L425 869 L425 870 L426 871 L425 872 L425 873 L423 875 L423 876 L421 878 L420 878 L419 877 L418 877 L419 878 L419 879 L420 880 L420 881 L418 883 L418 884 L415 887 L414 887 L413 886 L412 886 L413 887 L413 888 L414 889 L414 890 L413 891 L413 892 L411 894 L411 895 L410 896 L407 896 L406 895 L407 896 L407 897 L408 898 L408 899 L407 900 L407 901 L405 903 L405 904 L404 905 L401 905 L401 906 L402 907 L402 909 L400 911 L400 912 L398 914 L395 914 L395 915 L396 916 L396 918 L391 923 L391 924 L390 925 L390 926 L388 928 L388 929 L386 931 L386 932 L385 933 L385 934 L383 936 L383 937 L381 939 L381 940 L379 942 L379 943 L377 945 L376 945 L375 946 L374 946 L373 945 L371 945 L370 944 L365 944 L364 945 L363 945 L360 948 L360 949 L359 950 L359 954 L360 955 L360 957 L361 958 L361 959 L362 960 L362 961 L366 965 L366 966 L367 966 L369 968 L370 968 L373 971 L374 971 L375 972 L376 972 L377 973 L380 973 L381 974 L386 974 L387 975 L388 975 L389 974 L390 974 L391 973 L392 973 L394 971 L394 970 L395 969 L395 962 L394 961 L394 960 L391 957 L391 953 L392 952 L392 951 L393 950 L393 949 L395 947 L395 946 L397 944 L397 943 L398 942 L398 941 L400 939 L400 938 L402 936 L402 935 L404 933 L404 932 L407 929 L408 929 L408 923 L409 922 L413 922 L414 921 L415 921 L415 919 L414 918 L414 915 L417 912 L418 913 L419 912 L420 912 L421 911 L421 910 L420 909 L420 905 L422 903 L426 903 L427 902 L427 900 L426 899 L426 896 L428 894 L432 894 L433 893 L433 892 L432 891 L432 890 L431 889 L431 888 L432 887 L432 886 L433 885 L438 885 L439 884 L439 883 L438 882 L438 881 L437 880 L437 879 L438 878 L438 877 L439 876 L443 876 L444 875 L445 875 L445 874 L444 873 L444 872 L443 871 L443 869 L445 867 L449 867 L450 866 L450 864 L449 863 L449 860 L452 857 L456 857 L456 855 L455 854 L455 851 L456 850 L456 849 L457 848 L462 848 L462 846 L461 845 L461 842 L462 841 L462 840 L463 839 L467 839 L468 838 L467 837 L467 836 L466 835 L466 834 L467 833 L467 832 L469 830 L473 830 L474 829 L474 828 L472 826 L472 825 L473 824 L473 823 L475 821 L478 821 L479 820 L479 818 L478 817 L478 815 L479 814 L479 813 L480 812 L484 812 L485 811 L485 810 L484 809 L484 806 L485 805 L485 804 L487 802 L488 802 L489 803 L490 802 L491 802 L491 801 L490 800 L490 796 L493 793 L497 793 L497 792 L495 790 L495 789 L496 788 L496 786 L498 784 L502 784 L502 782 L500 780 L500 779 L501 778 L501 776 L503 774 L506 774 L506 773 L505 772 L505 771 L504 770 L504 769 L505 768 L505 765 L506 764 L506 763 L507 762 Z" fill="none" stroke="black" stroke-width="1" />
<path d="M 430 891 L431 890 L432 891 L431 892 Z" fill="none" stroke="black" stroke-width="1" />
<path d="M 459 847 L460 846 L461 847 L460 848 Z" fill="none" stroke="black" stroke-width="1" />
<path d="M 465 838 L466 837 L467 838 L466 839 Z" fill="none" stroke="black" stroke-width="1" />
<path d="M 503 771 L504 770 L505 771 L504 772 Z" fill="none" stroke="black" stroke-width="1" />
<path d="M 530 709 L529 710 L527 710 L526 711 L524 711 L524 712 L523 713 L523 714 L522 715 L521 715 L520 716 L520 721 L519 722 L518 722 L518 723 L517 724 L517 728 L516 729 L516 734 L517 735 L517 736 L519 738 L519 739 L520 739 L521 740 L522 740 L523 741 L525 741 L526 742 L528 742 L529 743 L531 743 L532 744 L533 744 L534 745 L535 745 L536 746 L537 746 L538 747 L539 747 L540 748 L542 748 L543 749 L544 749 L545 750 L548 750 L549 751 L550 751 L551 752 L552 752 L553 753 L554 753 L555 754 L556 754 L557 755 L559 755 L560 756 L561 756 L562 757 L565 757 L566 758 L568 758 L569 759 L570 759 L571 760 L572 760 L573 761 L574 761 L575 762 L576 762 L577 763 L579 763 L580 764 L582 764 L583 765 L585 765 L592 772 L593 772 L599 778 L600 778 L601 779 L602 779 L603 778 L603 776 L605 774 L606 775 L608 775 L609 776 L610 776 L611 777 L613 777 L614 778 L615 778 L616 779 L618 779 L619 780 L620 780 L621 781 L622 781 L623 782 L625 782 L626 783 L627 783 L628 784 L629 784 L630 785 L631 785 L632 786 L634 786 L635 787 L636 787 L637 788 L638 788 L639 789 L640 789 L641 790 L643 790 L644 791 L645 791 L646 792 L647 792 L648 793 L650 793 L651 794 L652 794 L653 795 L655 795 L656 796 L657 796 L658 797 L660 797 L661 798 L662 798 L663 799 L665 799 L666 800 L667 800 L668 801 L671 801 L672 800 L672 796 L673 795 L673 794 L674 793 L674 792 L675 791 L675 790 L676 789 L676 786 L677 785 L677 782 L678 781 L678 780 L679 779 L679 778 L681 776 L681 770 L680 769 L678 769 L677 768 L676 768 L675 767 L673 767 L672 766 L671 766 L670 765 L669 765 L668 764 L666 764 L665 763 L664 763 L663 762 L662 762 L661 761 L659 761 L658 760 L657 760 L656 759 L654 759 L653 758 L652 758 L651 757 L650 757 L649 756 L647 756 L646 755 L645 755 L644 754 L642 754 L641 753 L640 753 L639 752 L637 752 L636 751 L635 751 L634 750 L632 750 L631 749 L630 749 L629 748 L628 748 L627 747 L625 747 L624 746 L623 746 L622 745 L621 745 L620 744 L619 744 L618 743 L618 742 L619 741 L619 737 L618 736 L598 736 L597 735 L596 735 L595 734 L594 734 L593 733 L591 733 L590 732 L589 732 L588 731 L586 731 L585 730 L583 730 L582 729 L580 729 L579 728 L578 728 L576 726 L574 726 L573 725 L572 725 L571 724 L569 724 L568 723 L566 723 L565 722 L563 722 L562 721 L560 721 L558 719 L557 719 L556 718 L554 718 L553 717 L552 717 L551 716 L549 716 L548 715 L545 715 L544 714 L543 714 L542 713 L541 713 L540 712 L539 712 L538 711 L536 711 L535 710 L533 710 L532 709 Z" fill="none" stroke="black" stroke-width="1" />
<path d="M 1067 667 L1066 668 L1065 668 L1063 670 L1062 670 L1060 672 L1060 673 L1059 674 L1059 675 L1058 676 L1058 679 L1059 680 L1060 680 L1061 681 L1060 682 L1060 683 L1059 684 L1059 685 L1057 687 L1056 687 L1055 688 L1054 688 L1051 691 L1051 692 L1050 693 L1050 694 L1049 695 L1049 697 L1050 698 L1051 698 L1052 699 L1052 700 L1051 701 L1051 702 L1048 705 L1047 705 L1043 709 L1043 710 L1041 712 L1041 715 L1043 717 L1043 719 L1042 720 L1042 721 L1039 724 L1038 724 L1034 728 L1034 729 L1032 731 L1032 732 L1030 734 L1029 734 L1024 739 L1023 739 L1019 743 L1018 743 L1015 746 L1014 746 L1012 748 L1012 749 L1014 751 L1017 751 L1018 750 L1019 750 L1022 747 L1023 747 L1026 744 L1027 744 L1028 743 L1029 744 L1029 745 L1028 746 L1028 747 L1027 748 L1027 749 L1026 750 L1026 751 L1025 752 L1025 754 L1024 755 L1024 756 L1023 757 L1023 758 L1018 763 L1018 764 L1017 765 L1017 767 L1016 768 L1016 769 L1015 770 L1015 771 L1014 772 L1014 773 L1013 774 L1013 775 L1011 777 L1011 778 L1010 779 L1010 780 L1009 781 L1009 782 L1008 783 L1008 784 L1007 785 L1007 786 L1005 788 L1005 790 L1004 791 L1004 792 L1003 793 L1003 794 L1002 795 L1002 796 L1001 797 L1001 798 L1000 799 L1000 800 L997 803 L997 804 L995 806 L995 807 L993 809 L993 810 L991 812 L991 813 L989 815 L990 815 L991 816 L992 816 L993 817 L994 817 L995 818 L996 818 L997 819 L998 819 L999 820 L1000 820 L1001 821 L1002 821 L1004 823 L1006 823 L1007 824 L1008 824 L1010 826 L1011 826 L1012 827 L1014 827 L1017 830 L1017 832 L1018 833 L1019 833 L1020 832 L1024 832 L1025 833 L1027 833 L1027 831 L1028 830 L1028 828 L1029 827 L1029 825 L1030 824 L1030 822 L1031 821 L1031 820 L1032 819 L1032 817 L1033 816 L1033 813 L1034 812 L1034 811 L1035 810 L1035 809 L1036 808 L1036 806 L1037 805 L1037 804 L1038 803 L1038 802 L1039 801 L1039 800 L1040 799 L1040 798 L1041 797 L1041 795 L1042 794 L1042 793 L1043 792 L1043 790 L1044 789 L1044 787 L1045 786 L1045 785 L1046 784 L1046 783 L1047 782 L1047 781 L1048 780 L1048 779 L1049 778 L1049 772 L1050 771 L1050 769 L1051 768 L1051 767 L1054 764 L1054 761 L1055 760 L1055 758 L1057 756 L1058 757 L1058 761 L1059 762 L1059 769 L1060 770 L1060 772 L1062 772 L1063 773 L1064 773 L1065 772 L1065 769 L1064 768 L1064 750 L1063 749 L1064 748 L1064 745 L1065 744 L1065 742 L1066 741 L1066 738 L1065 737 L1065 733 L1066 732 L1066 731 L1069 728 L1070 729 L1072 729 L1072 728 L1073 727 L1073 726 L1074 725 L1074 719 L1073 718 L1073 716 L1074 715 L1074 713 L1077 710 L1079 710 L1080 711 L1081 710 L1081 708 L1082 707 L1082 706 L1083 705 L1083 702 L1082 701 L1082 700 L1081 699 L1081 698 L1082 697 L1082 695 L1085 692 L1088 692 L1089 691 L1089 690 L1090 689 L1090 687 L1091 686 L1091 679 L1090 678 L1090 676 L1089 675 L1088 675 L1085 672 L1081 672 L1080 671 L1079 671 L1076 668 L1071 668 L1070 667 Z" fill="none" stroke="black" stroke-width="1" />
<path d="M 1056 753 L1057 752 L1058 753 L1057 754 Z" fill="none" stroke="black" stroke-width="1" />
<path d="M 441 641 L440 642 L437 642 L436 643 L435 642 L433 642 L433 643 L432 644 L431 644 L430 645 L428 645 L427 646 L425 646 L423 644 L422 644 L422 645 L423 646 L422 647 L422 648 L421 649 L418 649 L417 650 L415 650 L413 648 L412 648 L413 649 L413 651 L410 654 L409 654 L408 655 L407 655 L406 656 L403 653 L404 654 L404 657 L403 658 L402 658 L400 660 L399 660 L398 661 L397 661 L395 659 L394 659 L395 660 L395 662 L392 665 L391 665 L390 666 L387 666 L385 664 L385 665 L386 666 L386 668 L385 669 L384 669 L383 670 L382 670 L380 672 L379 672 L376 669 L376 670 L377 671 L377 673 L375 675 L374 675 L373 676 L372 676 L371 677 L369 677 L367 675 L367 676 L368 677 L368 678 L365 681 L364 681 L363 682 L362 682 L361 683 L358 680 L358 682 L359 683 L355 687 L354 687 L353 688 L351 688 L349 686 L349 690 L348 691 L347 691 L346 692 L345 692 L343 694 L342 694 L340 692 L340 695 L338 697 L337 697 L336 698 L335 698 L334 699 L333 699 L331 697 L331 700 L328 703 L327 703 L326 704 L323 704 L321 702 L321 703 L322 704 L322 705 L319 708 L318 708 L317 709 L316 709 L315 710 L314 710 L312 708 L312 711 L309 714 L307 714 L306 715 L303 715 L303 716 L301 718 L300 718 L299 719 L297 719 L295 721 L294 721 L293 722 L292 722 L290 724 L289 724 L288 725 L287 725 L285 727 L284 727 L283 728 L282 728 L280 730 L279 730 L278 731 L277 731 L276 732 L275 732 L273 734 L272 734 L271 735 L270 735 L269 736 L268 736 L266 738 L265 738 L264 739 L263 739 L262 740 L261 740 L259 742 L258 742 L257 743 L256 743 L254 745 L253 745 L252 746 L251 746 L250 747 L249 747 L247 749 L246 749 L245 750 L238 750 L237 749 L237 748 L230 741 L229 741 L228 740 L226 740 L225 741 L224 741 L222 743 L222 748 L223 749 L223 751 L224 752 L224 754 L225 755 L225 759 L226 760 L226 763 L227 764 L227 765 L228 766 L228 767 L231 770 L231 771 L232 772 L232 773 L245 786 L252 786 L253 785 L253 777 L252 776 L252 774 L250 772 L250 767 L256 761 L257 761 L258 760 L259 760 L261 758 L262 758 L263 757 L264 757 L266 755 L267 755 L268 754 L269 754 L271 752 L272 752 L273 751 L274 751 L275 750 L276 750 L278 748 L279 748 L280 747 L281 747 L283 745 L284 745 L285 744 L286 744 L287 743 L288 743 L290 741 L291 741 L292 740 L293 740 L295 738 L296 738 L297 737 L298 737 L300 735 L301 735 L302 734 L303 734 L305 732 L307 732 L311 728 L312 728 L313 727 L314 727 L315 728 L316 728 L318 726 L318 724 L320 722 L321 722 L322 721 L323 722 L324 722 L325 723 L327 723 L327 719 L330 716 L332 716 L333 717 L334 717 L335 718 L337 716 L336 715 L336 714 L339 711 L340 711 L341 710 L343 712 L346 712 L346 708 L348 706 L349 706 L350 705 L351 705 L352 706 L353 706 L354 707 L355 707 L355 702 L356 701 L357 701 L359 699 L360 699 L362 701 L364 701 L364 697 L366 695 L367 695 L368 694 L369 694 L370 695 L371 695 L372 696 L373 696 L373 692 L376 689 L377 689 L378 688 L380 690 L381 690 L382 691 L383 690 L382 689 L382 686 L384 684 L385 684 L386 683 L388 683 L390 685 L391 685 L391 681 L394 678 L395 678 L396 677 L397 678 L398 678 L400 680 L400 675 L401 674 L402 674 L404 672 L406 672 L408 674 L409 674 L410 673 L409 672 L409 670 L411 668 L412 668 L414 666 L415 667 L416 667 L418 669 L418 664 L419 663 L420 663 L422 661 L424 661 L425 662 L426 662 L427 663 L427 658 L431 654 L432 654 L433 655 L434 655 L434 652 L435 651 L435 650 L439 646 L441 646 L441 645 L442 644 L442 643 L444 641 Z" fill="none" stroke="black" stroke-width="1" />
<path d="M 251 758 L252 757 L253 758 L252 759 Z" fill="none" stroke="black" stroke-width="1" />
<path d="M 271 746 L272 745 L273 746 L272 747 Z" fill="none" stroke="black" stroke-width="1" />
<path d="M 273 745 L274 744 L275 745 L274 746 Z" fill="none" stroke="black" stroke-width="1" />
<path d="M 283 739 L284 738 L285 739 L284 740 Z" fill="none" stroke="black" stroke-width="1" />
<path d="M 288 736 L289 735 L290 736 L289 737 Z" fill="none" stroke="black" stroke-width="1" />
<path d="M 298 730 L299 729 L300 730 L299 731 Z" fill="none" stroke="black" stroke-width="1" />
<path d="M 892 604 L891 605 L887 605 L886 606 L884 606 L883 607 L882 607 L881 608 L880 608 L879 609 L878 609 L877 610 L876 610 L872 614 L871 614 L868 617 L868 618 L865 621 L865 622 L864 623 L864 624 L863 625 L863 626 L862 627 L862 628 L861 629 L861 631 L860 632 L860 635 L859 636 L859 649 L860 650 L860 654 L861 655 L861 656 L862 657 L862 659 L863 660 L863 661 L864 662 L864 663 L866 665 L866 666 L869 669 L869 670 L873 674 L874 674 L876 676 L877 676 L879 678 L880 678 L881 679 L882 679 L883 680 L884 680 L885 681 L887 681 L888 682 L891 682 L892 683 L908 683 L909 682 L912 682 L913 681 L914 681 L915 680 L917 680 L918 679 L919 679 L921 677 L922 677 L924 675 L925 675 L931 669 L931 668 L934 665 L934 664 L935 663 L935 662 L936 661 L936 660 L937 659 L937 657 L938 656 L938 653 L939 652 L939 636 L938 635 L938 632 L937 631 L937 629 L936 628 L936 627 L935 626 L935 625 L933 623 L933 622 L930 619 L930 618 L926 614 L925 614 L921 610 L920 610 L919 609 L918 609 L917 608 L916 608 L915 607 L913 607 L912 606 L910 606 L909 605 L906 605 L905 604 Z" fill="none" stroke="black" stroke-width="1" />
<path d="M 893 629 L894 628 L904 628 L905 629 L906 629 L907 630 L908 630 L913 635 L913 636 L914 637 L914 638 L915 639 L915 642 L916 643 L916 645 L915 646 L915 649 L914 650 L914 651 L912 653 L912 654 L909 657 L908 657 L907 658 L906 658 L905 659 L903 659 L902 660 L897 660 L896 659 L894 659 L893 658 L892 658 L891 657 L890 657 L887 654 L887 653 L885 651 L885 649 L884 648 L884 645 L883 644 L883 642 L884 641 L884 638 L885 637 L885 636 L887 634 L887 633 L888 632 L889 632 L892 629 Z" fill="none" stroke="black" stroke-width="1" />
<path d="M 808 555 L806 557 L801 557 L801 560 L800 561 L800 565 L799 566 L799 569 L798 570 L798 574 L797 575 L797 580 L796 581 L796 583 L795 584 L795 586 L794 587 L794 590 L793 591 L793 593 L792 594 L792 597 L791 598 L791 600 L790 601 L790 604 L789 605 L789 608 L788 609 L788 611 L787 612 L787 616 L788 617 L788 618 L787 619 L787 621 L786 622 L786 624 L784 626 L782 626 L782 627 L781 628 L780 627 L780 626 L779 625 L779 622 L777 620 L774 620 L774 622 L775 623 L775 630 L776 631 L776 640 L777 641 L777 644 L776 645 L776 647 L775 648 L775 654 L776 655 L776 657 L777 658 L776 659 L776 661 L775 662 L775 663 L774 664 L772 664 L771 663 L770 664 L770 665 L769 666 L769 674 L770 675 L770 678 L769 679 L769 681 L767 683 L766 683 L765 682 L764 682 L764 683 L763 684 L763 686 L762 687 L762 691 L763 692 L763 694 L764 695 L764 696 L763 697 L763 699 L762 700 L762 701 L761 702 L760 702 L759 701 L758 701 L757 702 L757 704 L756 705 L756 707 L755 708 L755 710 L756 711 L756 714 L757 715 L757 716 L758 717 L759 717 L760 718 L761 718 L763 720 L764 720 L765 719 L766 719 L767 720 L768 720 L771 723 L772 723 L773 724 L774 723 L775 723 L776 724 L779 724 L782 721 L783 721 L784 720 L784 719 L785 718 L785 716 L786 715 L786 713 L787 712 L787 711 L786 711 L784 709 L784 707 L785 706 L785 704 L788 701 L789 701 L792 698 L792 696 L793 695 L793 692 L792 692 L790 690 L790 689 L791 688 L791 686 L792 685 L792 684 L793 683 L794 683 L798 679 L798 677 L799 676 L799 675 L800 674 L799 673 L798 673 L796 671 L796 670 L797 669 L797 667 L798 666 L798 665 L799 664 L800 664 L801 663 L802 663 L803 662 L803 661 L804 660 L804 659 L805 658 L805 657 L806 656 L806 654 L809 651 L809 650 L823 636 L823 635 L822 635 L821 634 L818 634 L814 638 L813 638 L812 637 L812 635 L810 633 L811 632 L811 630 L812 629 L812 627 L816 623 L816 621 L817 620 L817 618 L818 617 L818 615 L819 614 L819 613 L820 612 L820 611 L821 610 L821 609 L822 608 L822 607 L823 606 L823 604 L824 603 L824 601 L825 600 L825 599 L826 598 L826 596 L827 595 L827 593 L828 592 L828 590 L829 589 L829 588 L830 587 L830 586 L831 585 L831 584 L832 583 L832 582 L833 581 L833 580 L834 579 L834 578 L835 577 L835 576 L836 575 L836 574 L837 573 L837 572 L838 571 L838 570 L839 569 L839 568 L838 568 L837 567 L836 567 L835 566 L833 566 L832 565 L831 565 L830 564 L828 564 L827 563 L825 563 L824 562 L821 562 L820 561 L818 561 L817 560 L816 560 L815 559 L812 559 L811 558 L810 558 L809 557 L809 556 Z" fill="none" stroke="black" stroke-width="1" />
<path d="M 95 542 L94 543 L92 543 L90 545 L89 545 L86 548 L86 549 L83 552 L83 553 L81 555 L81 556 L79 558 L79 559 L77 561 L77 562 L76 563 L76 564 L75 565 L75 567 L74 568 L74 570 L73 571 L73 573 L72 574 L72 577 L71 578 L71 585 L72 586 L72 587 L73 588 L74 588 L75 589 L80 589 L81 588 L82 588 L89 581 L89 580 L92 577 L94 577 L95 578 L97 578 L98 579 L99 579 L100 580 L101 580 L102 581 L103 581 L104 582 L105 582 L106 583 L107 583 L108 584 L110 584 L111 585 L112 585 L113 586 L114 586 L115 587 L116 587 L117 588 L118 588 L119 589 L120 589 L121 590 L122 590 L123 591 L124 591 L125 592 L126 592 L127 593 L128 593 L129 594 L130 594 L131 595 L133 595 L135 597 L137 597 L138 598 L139 598 L140 599 L141 599 L142 600 L143 600 L144 601 L145 601 L146 602 L148 602 L150 604 L150 605 L155 605 L156 606 L157 606 L159 608 L159 610 L160 611 L163 611 L164 610 L167 610 L168 611 L168 613 L169 614 L169 616 L172 616 L174 614 L175 614 L176 615 L177 615 L178 616 L178 620 L179 621 L180 621 L181 620 L182 620 L183 619 L185 619 L186 620 L187 620 L188 621 L188 625 L191 625 L192 624 L196 624 L197 625 L197 629 L198 630 L200 630 L202 628 L204 628 L205 629 L206 629 L207 630 L207 634 L208 635 L209 634 L210 634 L212 632 L213 633 L215 633 L216 634 L216 638 L217 639 L219 639 L221 637 L223 637 L224 638 L225 638 L226 639 L226 643 L227 644 L228 644 L230 642 L233 642 L236 645 L236 648 L238 648 L240 646 L242 646 L243 647 L244 647 L245 648 L245 653 L247 653 L249 651 L252 651 L253 652 L254 652 L255 653 L255 658 L256 657 L257 657 L259 655 L261 655 L262 656 L263 656 L264 657 L264 661 L265 662 L267 662 L269 660 L273 660 L275 662 L275 665 L276 665 L278 663 L279 663 L280 662 L281 662 L282 663 L284 663 L287 666 L288 665 L296 665 L297 666 L299 666 L299 665 L298 665 L295 662 L295 661 L294 661 L293 660 L292 660 L287 655 L287 653 L286 654 L284 654 L282 652 L281 652 L280 651 L280 650 L279 649 L279 646 L277 648 L274 648 L270 644 L270 641 L268 643 L265 643 L264 642 L263 642 L260 639 L260 637 L258 639 L257 639 L256 638 L255 638 L254 637 L253 637 L252 636 L251 636 L250 635 L250 633 L251 632 L249 634 L246 634 L245 633 L244 633 L243 632 L242 632 L241 631 L241 628 L240 629 L239 629 L238 630 L237 629 L236 629 L235 628 L234 628 L231 625 L232 624 L232 623 L231 623 L231 624 L230 625 L228 625 L227 624 L225 624 L222 621 L222 618 L220 620 L217 620 L216 619 L215 619 L212 616 L212 615 L213 614 L212 614 L210 616 L209 616 L208 615 L206 615 L203 612 L203 609 L201 611 L199 611 L198 610 L196 610 L193 607 L193 606 L194 605 L193 605 L191 607 L190 607 L189 606 L188 606 L187 605 L186 605 L184 603 L184 600 L182 602 L179 602 L178 601 L177 601 L174 598 L174 596 L172 598 L171 598 L170 597 L169 597 L168 596 L167 596 L165 594 L165 592 L163 592 L162 593 L161 592 L160 592 L159 591 L158 591 L156 589 L155 589 L154 588 L152 588 L151 587 L150 587 L149 586 L148 586 L147 585 L146 585 L145 584 L144 584 L143 583 L142 583 L141 582 L140 582 L139 581 L138 581 L137 580 L136 580 L135 579 L134 579 L133 578 L132 578 L131 577 L129 577 L128 576 L127 576 L126 575 L125 575 L124 574 L123 574 L122 573 L121 573 L120 572 L119 572 L118 571 L117 571 L116 570 L115 570 L114 569 L113 569 L112 568 L111 568 L110 567 L109 567 L108 566 L107 566 L106 565 L105 565 L104 564 L103 564 L100 561 L100 559 L101 558 L101 555 L102 554 L102 545 L101 545 L99 543 L97 543 L96 542 Z" fill="none" stroke="black" stroke-width="1" />
<path d="M 1128 482 L1126 484 L1125 484 L1125 485 L1124 486 L1124 487 L1123 488 L1123 491 L1122 492 L1122 499 L1120 501 L1117 501 L1116 502 L1109 502 L1108 503 L1101 503 L1100 504 L1093 504 L1092 505 L1084 505 L1083 506 L1076 506 L1075 507 L1067 507 L1066 508 L1064 508 L1063 507 L1062 508 L1061 508 L1060 509 L1056 509 L1055 508 L1051 508 L1048 511 L1047 511 L1044 508 L1041 508 L1039 510 L1039 511 L1038 512 L1036 512 L1033 509 L1030 509 L1029 510 L1029 511 L1027 513 L1026 513 L1024 511 L1023 511 L1022 510 L1020 510 L1019 511 L1019 512 L1017 514 L1015 514 L1013 512 L1012 512 L1011 511 L1009 511 L1009 512 L1008 513 L1008 514 L1007 515 L1006 515 L1005 516 L1002 513 L1001 513 L1000 512 L999 512 L998 513 L998 514 L997 515 L997 516 L996 517 L994 517 L991 514 L988 514 L987 515 L987 517 L986 518 L983 518 L980 515 L978 515 L976 517 L976 518 L974 520 L973 520 L969 516 L967 516 L966 517 L966 519 L964 521 L962 521 L959 518 L956 518 L956 519 L955 520 L955 521 L954 522 L953 522 L952 523 L951 523 L950 522 L950 521 L948 519 L946 519 L945 520 L945 521 L944 522 L944 523 L943 524 L940 524 L939 523 L939 522 L938 521 L937 521 L936 520 L934 522 L934 524 L933 525 L932 525 L931 526 L930 526 L927 523 L924 523 L924 525 L923 526 L923 527 L922 528 L921 528 L920 529 L919 529 L917 527 L915 527 L915 528 L911 532 L909 532 L908 533 L905 533 L903 535 L902 535 L901 536 L903 536 L904 537 L909 537 L911 539 L912 539 L913 538 L920 538 L922 540 L922 541 L923 541 L923 539 L924 538 L929 538 L930 539 L931 539 L933 541 L933 542 L934 541 L934 539 L935 538 L936 538 L937 537 L942 537 L943 538 L943 539 L944 540 L944 541 L944 538 L945 537 L946 537 L947 536 L953 536 L954 537 L954 539 L955 539 L955 536 L956 535 L961 535 L962 534 L965 537 L965 538 L965 537 L966 536 L966 535 L967 534 L968 534 L969 533 L974 533 L975 534 L975 535 L976 536 L976 537 L976 534 L977 533 L978 533 L979 532 L984 532 L986 534 L986 535 L987 534 L987 532 L988 531 L993 531 L994 530 L996 532 L996 533 L997 534 L997 532 L999 530 L1000 530 L1001 529 L1005 529 L1007 531 L1007 533 L1008 532 L1008 530 L1010 528 L1016 528 L1017 529 L1017 530 L1018 531 L1018 530 L1019 529 L1019 528 L1020 527 L1027 527 L1028 528 L1028 530 L1029 530 L1029 528 L1031 526 L1035 526 L1036 525 L1038 527 L1038 528 L1039 529 L1040 528 L1040 526 L1041 525 L1043 525 L1044 524 L1047 524 L1049 526 L1049 527 L1050 527 L1050 525 L1051 524 L1054 524 L1055 523 L1057 523 L1058 524 L1059 524 L1060 525 L1062 523 L1070 523 L1071 522 L1078 522 L1079 521 L1087 521 L1088 520 L1095 520 L1096 519 L1104 519 L1105 518 L1113 518 L1114 517 L1123 517 L1124 518 L1124 520 L1125 521 L1125 523 L1126 524 L1126 525 L1127 526 L1127 527 L1128 528 L1128 529 L1133 534 L1137 534 L1138 533 L1139 533 L1140 532 L1141 532 L1144 529 L1144 528 L1145 527 L1145 522 L1146 521 L1146 506 L1145 505 L1145 501 L1144 500 L1144 497 L1143 496 L1143 494 L1142 493 L1142 492 L1141 491 L1141 489 L1140 488 L1140 487 L1136 483 L1135 483 L1134 482 Z" fill="none" stroke="black" stroke-width="1" />
<path d="M 542 473 L541 474 L541 475 L542 476 L542 477 L543 478 L543 480 L544 481 L544 485 L548 489 L548 490 L549 491 L549 492 L550 493 L550 494 L549 495 L549 496 L548 497 L548 500 L551 500 L552 499 L555 502 L555 503 L556 504 L556 505 L555 506 L555 507 L554 508 L554 511 L556 511 L557 510 L560 510 L563 513 L563 516 L562 517 L562 520 L565 520 L566 519 L567 519 L571 523 L571 526 L569 528 L569 529 L570 530 L571 530 L571 529 L572 528 L573 529 L575 529 L577 531 L577 532 L579 534 L579 535 L578 536 L578 537 L577 538 L577 539 L578 540 L579 540 L578 539 L578 538 L579 537 L581 539 L583 539 L587 543 L587 544 L586 545 L586 546 L585 547 L585 550 L587 550 L588 549 L589 549 L590 548 L594 552 L594 553 L595 554 L594 555 L594 556 L593 557 L593 559 L596 559 L597 558 L598 558 L602 562 L602 563 L603 564 L602 565 L602 566 L601 567 L601 569 L603 569 L604 568 L606 568 L610 572 L610 575 L609 576 L609 579 L610 579 L611 578 L614 578 L618 582 L618 585 L617 586 L617 588 L618 589 L619 588 L620 588 L621 587 L622 588 L623 588 L624 589 L624 590 L627 593 L626 594 L626 598 L627 598 L628 597 L629 597 L632 600 L632 601 L633 602 L633 603 L634 604 L634 605 L635 605 L637 607 L637 608 L641 612 L641 613 L645 617 L645 618 L649 622 L649 623 L654 628 L654 629 L658 633 L658 634 L662 638 L662 639 L666 643 L666 644 L669 647 L669 648 L671 650 L671 657 L669 659 L668 659 L664 663 L664 664 L663 665 L663 667 L665 669 L666 669 L667 670 L679 670 L678 669 L680 667 L682 669 L683 669 L684 668 L685 668 L686 667 L687 667 L690 664 L691 664 L696 659 L697 659 L701 655 L701 654 L703 652 L703 651 L704 650 L703 649 L704 648 L705 648 L705 647 L706 646 L706 643 L707 642 L707 640 L706 639 L707 638 L706 637 L706 636 L704 634 L703 634 L702 633 L701 633 L699 635 L698 635 L695 638 L694 638 L693 639 L692 639 L691 640 L689 638 L686 638 L685 637 L685 636 L679 630 L679 629 L674 624 L674 623 L669 618 L669 617 L665 613 L665 612 L660 607 L660 606 L655 601 L655 600 L651 596 L651 595 L647 591 L647 589 L646 588 L644 588 L642 586 L641 586 L640 585 L640 584 L638 582 L639 581 L639 580 L640 579 L640 578 L637 578 L636 579 L633 576 L633 575 L630 572 L631 571 L631 570 L632 569 L632 568 L633 567 L632 568 L630 568 L629 569 L628 569 L624 565 L624 564 L622 562 L623 561 L623 560 L625 558 L623 558 L622 559 L620 559 L616 555 L616 554 L614 552 L616 550 L616 549 L617 548 L616 549 L612 549 L608 545 L608 544 L607 543 L607 541 L609 539 L609 538 L607 540 L606 539 L604 539 L600 535 L600 534 L599 533 L599 532 L600 531 L600 530 L602 528 L601 529 L599 529 L599 530 L598 531 L593 526 L593 525 L592 524 L591 524 L590 523 L592 521 L592 520 L593 519 L590 522 L589 521 L589 520 L585 516 L585 515 L584 514 L583 514 L582 513 L586 509 L585 509 L582 512 L581 511 L581 510 L576 505 L576 504 L575 503 L577 501 L577 500 L578 499 L575 502 L574 502 L573 501 L573 500 L567 494 L567 493 L570 490 L568 490 L567 491 L564 491 L563 492 L562 491 L562 489 L561 489 L558 486 L558 484 L560 482 L559 483 L558 483 L558 484 L557 485 L556 484 L556 483 L555 483 L554 482 L553 482 L551 480 L550 480 L548 478 L548 477 L547 476 L545 476 Z" fill="none" stroke="black" stroke-width="1" />
<path d="M 682 668 L683 667 L684 668 L683 669 Z" fill="none" stroke="black" stroke-width="1" />
<path d="M 672 668 L673 667 L675 669 L674 670 L673 670 L672 669 Z" fill="none" stroke="black" stroke-width="1" />
<path d="M 683 667 L684 666 L685 666 L686 667 L685 668 L684 668 Z" fill="none" stroke="black" stroke-width="1" />
<path d="M 685 666 L686 665 L687 665 L688 666 L687 667 L686 667 Z" fill="none" stroke="black" stroke-width="1" />
<path d="M 705 640 L706 639 L707 640 L706 641 Z" fill="none" stroke="black" stroke-width="1" />
<path d="M 617 586 L618 585 L619 586 L618 587 Z" fill="none" stroke="black" stroke-width="1" />
<path d="M 629 569 L630 568 L631 569 L630 570 Z" fill="none" stroke="black" stroke-width="1" />
<path d="M 621 560 L622 559 L623 560 L622 561 Z" fill="none" stroke="black" stroke-width="1" />
<path d="M 613 550 L614 549 L615 550 L614 551 Z" fill="none" stroke="black" stroke-width="1" />
<path d="M 605 540 L606 539 L607 540 L606 541 Z" fill="none" stroke="black" stroke-width="1" />
<path d="M 569 529 L570 528 L571 529 L570 530 Z" fill="none" stroke="black" stroke-width="1" />
<path d="M 570 527 L571 526 L572 527 L571 528 Z" fill="none" stroke="black" stroke-width="1" />
<path d="M 562 518 L563 517 L564 518 L564 519 L563 520 L562 519 Z" fill="none" stroke="black" stroke-width="1" />
<path d="M 556 509 L557 508 L558 509 L557 510 Z" fill="none" stroke="black" stroke-width="1" />
<path d="M 557 508 L558 507 L559 508 L558 509 Z" fill="none" stroke="black" stroke-width="1" />
<path d="M 570 499 L571 498 L572 499 L571 500 Z" fill="none" stroke="black" stroke-width="1" />
<path d="M 569 498 L570 497 L571 498 L570 499 Z" fill="none" stroke="black" stroke-width="1" />
<path d="M 564 492 L565 491 L566 491 L567 492 L566 493 L565 493 Z" fill="none" stroke="black" stroke-width="1" />
<path d="M 236 467 L235 468 L232 468 L231 469 L229 469 L228 470 L227 470 L226 471 L225 471 L224 472 L223 472 L221 474 L220 474 L217 477 L216 477 L213 480 L213 481 L210 484 L210 485 L209 486 L209 487 L208 488 L208 489 L207 490 L207 491 L206 492 L206 494 L205 495 L205 497 L204 498 L204 514 L205 515 L205 518 L206 519 L206 520 L207 521 L207 523 L209 525 L209 526 L210 527 L210 528 L213 531 L213 532 L216 535 L217 535 L220 538 L221 538 L223 540 L224 540 L225 541 L226 541 L227 542 L229 542 L230 543 L233 543 L234 544 L238 544 L239 545 L247 545 L248 544 L253 544 L254 543 L256 543 L257 542 L259 542 L260 541 L261 541 L262 540 L263 540 L265 538 L266 538 L269 535 L270 535 L273 532 L273 531 L277 527 L277 526 L278 525 L278 524 L279 523 L279 522 L280 521 L280 519 L281 518 L281 516 L282 515 L282 512 L283 511 L283 500 L282 499 L282 495 L281 494 L281 492 L280 491 L280 490 L279 489 L279 488 L278 487 L278 486 L277 485 L277 484 L274 481 L274 480 L270 476 L269 476 L266 473 L265 473 L264 472 L263 472 L262 471 L261 471 L260 470 L259 470 L258 469 L256 469 L255 468 L253 468 L252 467 Z" fill="none" stroke="black" stroke-width="1" />
<path d="M 238 491 L239 490 L248 490 L249 491 L250 491 L251 492 L252 492 L257 497 L257 498 L258 499 L258 500 L259 501 L259 510 L258 511 L258 512 L257 513 L257 514 L251 520 L249 520 L248 521 L245 521 L244 522 L242 522 L241 521 L238 521 L237 520 L236 520 L234 518 L233 518 L230 515 L230 514 L229 513 L229 512 L228 511 L228 508 L227 507 L227 504 L228 503 L228 500 L230 498 L230 497 L235 492 L236 492 L237 491 Z" fill="none" stroke="black" stroke-width="1" />
<path d="M 568 365 L564 369 L561 369 L560 370 L560 372 L559 373 L558 373 L556 375 L555 375 L554 374 L552 374 L551 375 L551 378 L552 379 L549 382 L548 382 L547 381 L544 381 L543 382 L543 383 L544 384 L544 385 L545 386 L545 387 L542 390 L537 390 L537 391 L538 392 L538 393 L539 394 L539 395 L538 396 L538 397 L537 398 L532 398 L531 399 L532 400 L532 401 L533 402 L533 404 L531 406 L526 406 L525 407 L526 408 L526 409 L527 410 L527 412 L524 415 L523 415 L522 414 L521 414 L520 415 L520 417 L521 418 L521 420 L520 421 L520 422 L519 423 L514 423 L514 425 L515 426 L515 429 L513 431 L508 431 L508 433 L509 434 L509 437 L506 440 L505 440 L504 439 L503 439 L502 440 L502 441 L503 442 L503 443 L504 444 L503 445 L503 446 L501 448 L496 448 L496 449 L497 450 L497 451 L498 452 L497 453 L497 454 L494 457 L493 456 L491 456 L490 457 L491 458 L491 459 L492 460 L492 461 L490 463 L490 464 L489 465 L484 465 L484 466 L486 468 L486 469 L484 471 L484 472 L483 473 L479 473 L479 475 L480 476 L480 477 L478 479 L478 480 L476 482 L474 482 L473 483 L473 484 L474 485 L470 489 L470 490 L468 492 L468 493 L465 496 L465 497 L462 500 L462 501 L460 503 L460 504 L458 506 L458 507 L455 510 L455 511 L452 514 L452 515 L450 517 L450 518 L447 521 L447 522 L445 524 L445 525 L442 528 L442 529 L437 534 L435 534 L434 535 L432 535 L431 536 L430 536 L429 535 L428 535 L426 533 L425 533 L423 531 L421 531 L420 530 L418 532 L418 535 L419 535 L420 536 L421 536 L422 537 L422 538 L423 539 L423 541 L424 542 L424 543 L425 544 L425 545 L427 547 L427 548 L429 550 L431 550 L433 552 L434 552 L439 557 L441 557 L442 558 L443 558 L444 559 L447 559 L448 560 L455 560 L457 562 L459 562 L461 560 L461 558 L459 556 L458 556 L454 552 L453 552 L452 551 L452 546 L451 545 L452 544 L452 541 L454 539 L454 538 L456 536 L456 535 L458 533 L458 532 L460 530 L460 529 L463 526 L463 525 L465 523 L465 522 L467 520 L467 519 L470 516 L470 515 L473 512 L473 511 L475 509 L475 508 L478 505 L478 504 L480 502 L480 501 L482 499 L482 498 L484 496 L485 496 L485 493 L486 492 L486 491 L489 488 L490 489 L491 489 L491 488 L490 487 L490 486 L491 485 L491 484 L493 482 L493 481 L494 480 L496 480 L497 481 L498 481 L497 480 L497 479 L496 478 L496 477 L497 476 L497 475 L501 471 L502 472 L503 472 L503 471 L502 470 L502 469 L503 468 L503 467 L505 465 L505 464 L506 463 L507 463 L508 464 L509 464 L509 463 L508 462 L508 460 L510 458 L510 457 L512 455 L514 455 L515 456 L516 456 L514 454 L514 452 L515 451 L515 450 L518 447 L520 447 L521 448 L522 448 L520 446 L520 443 L524 439 L527 439 L528 440 L526 438 L526 435 L528 433 L528 432 L530 430 L531 430 L532 431 L533 431 L532 430 L532 427 L533 426 L533 425 L536 422 L537 422 L538 423 L539 423 L537 421 L537 420 L538 419 L538 418 L542 414 L544 414 L545 415 L543 413 L543 412 L544 411 L544 410 L546 408 L546 407 L547 406 L550 406 L551 407 L550 406 L550 405 L549 404 L549 403 L551 401 L551 400 L554 397 L555 398 L556 398 L557 399 L557 398 L555 396 L555 395 L556 394 L556 392 L557 391 L557 390 L558 389 L561 389 L562 390 L562 389 L560 387 L561 386 L561 383 L562 382 L562 381 L564 379 L565 380 L565 378 L564 377 L565 376 L565 375 L566 374 L566 372 L567 371 L567 370 L568 369 L568 367 L569 366 L569 365 Z" fill="none" stroke="black" stroke-width="1" />
<path d="M 427 547 L428 546 L429 547 L428 548 Z" fill="none" stroke="black" stroke-width="1" />
<path d="M 1019 364 L1018 365 L1015 365 L1014 366 L1012 366 L1011 367 L1010 367 L1009 368 L1008 368 L1007 369 L1006 369 L1004 371 L1003 371 L994 380 L994 381 L993 382 L993 383 L992 384 L992 385 L991 386 L991 387 L990 388 L990 390 L989 391 L989 394 L988 395 L988 409 L989 410 L989 414 L990 415 L990 416 L991 417 L991 419 L993 421 L993 422 L994 423 L994 424 L995 425 L995 426 L1003 434 L1004 434 L1006 436 L1007 436 L1009 438 L1011 438 L1012 439 L1013 439 L1014 440 L1016 440 L1017 441 L1020 441 L1021 442 L1033 442 L1034 441 L1037 441 L1038 440 L1040 440 L1041 439 L1043 439 L1044 438 L1045 438 L1046 437 L1047 437 L1049 435 L1050 435 L1053 432 L1054 432 L1057 429 L1057 428 L1060 425 L1060 424 L1062 422 L1062 421 L1063 420 L1063 418 L1064 417 L1064 415 L1065 414 L1065 412 L1066 411 L1066 396 L1065 395 L1065 392 L1064 391 L1064 389 L1063 388 L1063 387 L1062 386 L1062 385 L1061 384 L1061 383 L1059 381 L1059 380 L1056 377 L1056 376 L1055 376 L1050 371 L1049 371 L1047 369 L1046 369 L1045 368 L1044 368 L1043 367 L1041 367 L1040 366 L1038 366 L1037 365 L1034 365 L1033 364 Z" fill="none" stroke="black" stroke-width="1" />
<path d="M 1022 388 L1023 387 L1029 387 L1030 388 L1032 388 L1033 389 L1034 389 L1036 391 L1037 391 L1038 392 L1038 393 L1041 396 L1041 397 L1042 398 L1042 408 L1041 409 L1041 410 L1040 411 L1040 412 L1035 417 L1034 417 L1033 418 L1030 418 L1029 419 L1027 419 L1026 418 L1023 418 L1022 417 L1021 417 L1020 416 L1019 416 L1017 414 L1017 413 L1016 413 L1014 411 L1014 410 L1013 409 L1013 407 L1012 406 L1012 397 L1013 396 L1013 395 L1015 393 L1015 392 L1017 390 L1018 390 L1020 388 Z" fill="none" stroke="black" stroke-width="1" />
<path d="M 599 320 L599 321 L598 322 L598 323 L597 324 L597 325 L596 326 L596 327 L595 328 L595 329 L594 330 L594 332 L593 333 L593 334 L592 335 L592 337 L591 338 L591 340 L590 341 L590 342 L589 343 L589 346 L588 347 L588 349 L587 350 L587 356 L586 357 L588 357 L589 358 L592 358 L593 359 L596 359 L597 360 L601 360 L602 361 L607 361 L608 362 L610 362 L611 363 L612 363 L613 364 L615 364 L616 365 L618 365 L619 366 L621 366 L622 367 L624 367 L625 368 L627 368 L628 369 L630 369 L631 370 L633 370 L634 371 L636 371 L637 372 L638 372 L639 373 L641 373 L642 374 L644 374 L645 373 L646 373 L647 374 L649 374 L650 375 L651 375 L652 376 L653 376 L654 377 L654 379 L655 380 L654 381 L650 381 L649 382 L648 382 L648 383 L647 384 L647 385 L648 386 L650 386 L651 385 L672 385 L673 386 L674 386 L675 387 L677 387 L678 388 L681 388 L682 387 L687 387 L688 388 L689 388 L691 390 L691 391 L690 392 L691 393 L692 393 L693 394 L695 394 L696 395 L700 395 L701 394 L705 394 L706 395 L708 395 L709 396 L709 400 L710 400 L711 401 L713 401 L714 402 L719 402 L720 401 L724 401 L725 402 L726 402 L728 404 L727 405 L727 407 L729 407 L730 408 L732 408 L733 409 L737 409 L738 408 L741 408 L747 402 L746 401 L746 399 L747 398 L747 397 L749 395 L749 393 L750 392 L750 386 L749 385 L749 384 L747 382 L747 381 L746 381 L745 380 L743 380 L742 379 L741 379 L740 378 L738 378 L738 379 L737 380 L736 380 L735 381 L734 381 L733 380 L732 380 L731 379 L730 379 L729 378 L729 377 L728 376 L728 375 L726 373 L725 373 L724 372 L723 372 L722 371 L720 371 L719 372 L719 373 L718 374 L716 374 L715 373 L714 373 L713 372 L712 372 L710 370 L710 368 L708 366 L707 366 L706 365 L705 365 L704 364 L702 364 L699 367 L698 367 L697 366 L695 366 L692 363 L692 362 L691 361 L691 360 L690 359 L689 359 L688 358 L687 358 L686 357 L683 357 L668 342 L668 341 L667 340 L665 340 L664 341 L664 345 L667 348 L666 349 L665 349 L665 350 L664 351 L662 351 L661 350 L659 350 L658 349 L657 349 L654 346 L654 345 L653 345 L652 344 L651 344 L650 343 L648 343 L647 342 L646 342 L645 341 L643 341 L642 340 L641 340 L640 339 L639 339 L638 338 L636 338 L635 337 L634 337 L633 336 L631 336 L630 335 L629 335 L628 334 L626 334 L625 333 L623 333 L622 332 L621 332 L620 331 L619 331 L618 330 L617 330 L616 329 L615 329 L614 328 L613 328 L612 327 L611 327 L609 325 L608 325 L607 324 L606 324 L605 323 L604 323 L603 322 L602 322 L601 321 L600 321 Z" fill="none" stroke="black" stroke-width="1" />
<path d="M 185 315 L184 316 L184 317 L183 318 L183 320 L182 321 L182 325 L181 326 L181 328 L180 329 L180 332 L179 333 L179 344 L180 345 L180 349 L181 350 L181 352 L182 353 L182 357 L183 358 L183 360 L184 361 L184 363 L186 365 L187 365 L188 366 L192 366 L193 365 L194 365 L194 364 L195 363 L195 361 L196 360 L196 357 L197 356 L197 352 L199 350 L200 350 L201 349 L220 349 L221 350 L254 350 L255 351 L260 351 L261 350 L265 350 L268 353 L269 352 L270 352 L271 351 L272 351 L273 350 L275 350 L278 353 L278 354 L280 354 L281 353 L281 352 L282 351 L286 351 L288 353 L288 354 L289 355 L290 355 L291 354 L291 353 L293 351 L297 351 L298 352 L298 353 L299 354 L299 355 L301 355 L302 354 L302 353 L303 352 L308 352 L309 353 L309 354 L310 355 L310 356 L311 356 L312 355 L312 354 L314 352 L318 352 L319 353 L319 354 L321 356 L322 356 L322 355 L324 353 L325 353 L326 352 L327 352 L328 353 L329 353 L330 354 L330 355 L331 356 L331 357 L332 357 L333 356 L333 354 L334 353 L339 353 L341 355 L341 357 L343 357 L343 356 L345 354 L350 354 L351 355 L351 356 L352 357 L352 358 L353 358 L353 357 L354 356 L354 355 L355 354 L360 354 L362 356 L362 358 L363 358 L364 357 L364 356 L365 355 L366 355 L367 354 L370 354 L372 356 L372 357 L373 358 L373 359 L374 359 L374 358 L375 357 L375 356 L376 355 L381 355 L383 357 L383 359 L384 360 L384 359 L385 358 L385 357 L386 356 L387 356 L388 355 L392 355 L393 356 L393 358 L394 359 L395 359 L395 358 L396 357 L396 356 L397 355 L399 355 L400 354 L402 354 L403 355 L403 356 L405 356 L408 353 L412 353 L413 352 L414 353 L415 353 L416 352 L417 352 L418 351 L419 351 L418 350 L417 350 L416 349 L414 349 L413 348 L412 348 L411 347 L411 346 L409 346 L408 347 L407 346 L404 346 L403 345 L402 345 L401 344 L401 343 L400 342 L400 341 L399 342 L399 343 L398 344 L395 344 L394 343 L392 343 L390 341 L390 338 L389 339 L389 341 L388 342 L381 342 L380 341 L380 339 L379 338 L379 339 L378 340 L378 341 L377 342 L372 342 L371 341 L370 341 L369 340 L369 338 L368 338 L368 340 L367 341 L360 341 L359 340 L359 339 L358 338 L358 337 L358 338 L357 339 L357 340 L356 341 L352 341 L351 340 L349 340 L348 339 L348 336 L348 337 L347 338 L347 339 L346 340 L339 340 L338 339 L338 338 L337 337 L337 336 L337 337 L336 338 L336 339 L335 340 L331 340 L330 339 L328 339 L327 338 L327 336 L326 337 L326 338 L325 339 L318 339 L317 338 L317 337 L316 336 L316 335 L316 336 L315 337 L315 338 L314 339 L309 339 L308 338 L307 338 L306 337 L306 335 L305 335 L305 337 L304 338 L297 338 L296 337 L296 336 L295 335 L295 334 L295 336 L293 338 L288 338 L287 337 L286 337 L285 336 L285 335 L284 334 L284 336 L283 337 L276 337 L274 335 L274 334 L273 335 L273 336 L272 337 L267 337 L266 336 L265 336 L263 334 L261 336 L258 336 L257 335 L227 335 L226 334 L202 334 L201 333 L200 333 L199 332 L198 332 L197 331 L197 329 L196 328 L196 324 L195 323 L195 320 L194 319 L194 318 L191 315 Z" fill="none" stroke="black" stroke-width="1" />
<path d="M 741 285 Z" fill="none" stroke="black" stroke-width="1" />
<path d="M 674 254 Z" fill="none" stroke="black" stroke-width="1" />
<path d="M 1024 247 L1021 250 L1020 250 L1019 251 L1016 251 L1013 254 L1013 255 L1012 256 L1007 256 L1006 257 L1005 257 L1005 258 L1004 259 L1004 261 L1002 263 L999 263 L997 265 L997 266 L996 267 L996 268 L997 269 L996 270 L995 270 L994 271 L992 271 L991 272 L991 273 L990 274 L990 277 L989 278 L988 278 L987 279 L986 279 L984 281 L984 285 L983 286 L981 286 L980 287 L979 287 L979 288 L978 289 L978 293 L977 294 L974 294 L972 296 L972 300 L970 302 L967 302 L967 303 L966 304 L966 308 L965 309 L963 309 L962 310 L961 310 L960 311 L960 316 L959 317 L957 317 L956 318 L955 318 L954 319 L954 323 L955 324 L954 325 L951 325 L950 326 L949 326 L948 327 L948 332 L947 333 L944 333 L942 335 L942 340 L941 341 L938 341 L936 343 L936 348 L935 349 L933 349 L932 350 L931 350 L930 351 L930 356 L928 358 L927 358 L925 360 L925 361 L924 362 L924 363 L920 367 L920 368 L916 372 L916 373 L913 376 L913 377 L909 381 L909 382 L905 386 L905 387 L901 391 L901 392 L897 396 L897 397 L893 401 L893 402 L889 406 L889 407 L887 409 L886 409 L885 408 L884 408 L883 407 L882 407 L881 406 L880 406 L879 405 L876 405 L875 404 L868 404 L865 407 L865 408 L864 409 L864 414 L865 415 L865 416 L866 417 L866 418 L869 421 L869 422 L875 428 L876 427 L877 428 L877 429 L880 432 L881 432 L883 434 L884 434 L885 435 L886 434 L887 435 L889 435 L890 436 L889 437 L888 437 L889 437 L890 436 L892 436 L893 437 L892 438 L891 438 L892 438 L893 439 L895 439 L896 440 L899 440 L900 441 L903 441 L904 440 L905 440 L906 439 L907 439 L908 438 L909 438 L909 437 L910 436 L910 432 L909 431 L909 429 L908 428 L908 427 L904 423 L904 422 L900 418 L902 416 L902 415 L905 412 L905 411 L909 407 L909 406 L913 402 L913 401 L916 398 L916 397 L920 393 L920 392 L924 388 L924 387 L927 384 L927 383 L931 379 L931 378 L935 374 L935 373 L937 371 L937 370 L939 368 L939 367 L940 366 L943 366 L943 364 L942 363 L944 361 L944 360 L946 358 L947 358 L948 359 L949 359 L950 358 L950 357 L949 356 L949 354 L950 353 L950 352 L952 350 L953 350 L954 351 L956 351 L956 349 L955 348 L955 346 L959 342 L960 343 L963 343 L962 342 L962 341 L961 340 L961 339 L962 338 L962 337 L964 335 L969 335 L969 334 L968 333 L968 332 L967 331 L969 329 L969 328 L970 327 L973 327 L974 328 L975 328 L975 326 L974 325 L974 322 L977 319 L978 319 L979 320 L981 320 L981 318 L980 317 L980 314 L983 311 L984 312 L987 312 L987 310 L986 309 L986 307 L987 306 L987 305 L988 304 L991 304 L992 305 L993 305 L994 304 L994 303 L992 301 L992 299 L995 296 L996 296 L997 297 L999 297 L1000 296 L1000 295 L998 293 L998 291 L1001 288 L1002 288 L1003 289 L1005 289 L1006 288 L1005 287 L1005 286 L1004 285 L1004 284 L1007 281 L1010 281 L1011 282 L1012 281 L1012 279 L1010 277 L1010 276 L1013 273 L1018 273 L1018 271 L1016 269 L1016 267 L1017 266 L1017 265 L1018 264 L1022 264 L1022 262 L1020 260 L1021 259 L1021 257 L1022 256 L1022 255 L1023 254 L1024 254 L1024 250 L1025 249 L1025 247 Z" fill="none" stroke="black" stroke-width="1" />
<path d="M 890 433 L891 432 L892 433 L891 434 Z" fill="none" stroke="black" stroke-width="1" />
<path d="M 889 431 L890 430 L891 431 L890 432 Z" fill="none" stroke="black" stroke-width="1" />
<path d="M 873 426 L874 425 L875 426 L874 427 Z" fill="none" stroke="black" stroke-width="1" />
<path d="M 878 424 L879 423 L880 424 L879 425 Z" fill="none" stroke="black" stroke-width="1" />
<path d="M 871 423 L872 422 L874 424 L874 425 L873 426 L871 424 Z" fill="none" stroke="black" stroke-width="1" />
<path d="M 875 422 L876 421 L877 422 L876 423 Z" fill="none" stroke="black" stroke-width="1" />
<path d="M 870 422 L871 421 L872 422 L871 423 Z" fill="none" stroke="black" stroke-width="1" />
<path d="M 869 420 L870 419 L871 420 L870 421 Z" fill="none" stroke="black" stroke-width="1" />
<path d="M 874 410 L875 409 L876 409 L877 410 L876 411 L875 411 Z" fill="none" stroke="black" stroke-width="1" />
<path d="M 870 409 L871 408 L872 409 L871 410 Z" fill="none" stroke="black" stroke-width="1" />
<path d="M 851 162 L850 163 L847 163 L846 164 L843 164 L842 165 L841 165 L840 166 L839 166 L838 167 L837 167 L835 169 L834 169 L830 173 L829 173 L829 174 L825 178 L825 179 L823 181 L823 182 L822 183 L822 184 L821 185 L821 187 L820 188 L820 190 L819 191 L819 196 L818 197 L818 202 L819 203 L819 209 L820 210 L820 213 L821 214 L821 215 L822 216 L822 217 L823 218 L823 219 L824 220 L824 221 L826 223 L826 224 L827 224 L828 225 L828 226 L831 229 L832 229 L835 232 L836 232 L838 234 L839 234 L840 235 L841 235 L842 236 L843 236 L844 237 L846 237 L847 238 L851 238 L852 239 L863 239 L864 238 L868 238 L869 237 L871 237 L872 236 L873 236 L874 235 L875 235 L876 234 L877 234 L878 233 L879 233 L881 231 L882 231 L888 225 L888 224 L890 222 L890 221 L892 219 L892 218 L893 217 L893 216 L894 215 L894 213 L895 212 L895 209 L896 208 L896 194 L895 193 L895 190 L894 189 L894 187 L893 186 L893 185 L892 184 L892 183 L891 182 L891 181 L889 179 L889 178 L881 170 L880 170 L878 168 L877 168 L875 166 L873 166 L872 165 L871 165 L870 164 L868 164 L867 163 L863 163 L862 162 Z" fill="none" stroke="black" stroke-width="1" />
<path d="M 852 186 L853 185 L863 185 L864 186 L865 186 L867 188 L868 188 L871 191 L871 192 L872 193 L872 194 L873 195 L873 200 L874 201 L873 202 L873 205 L872 206 L872 207 L871 208 L871 209 L867 213 L866 213 L865 214 L864 214 L863 215 L861 215 L860 216 L856 216 L855 215 L853 215 L852 214 L851 214 L850 213 L849 213 L844 208 L844 207 L843 206 L843 204 L842 203 L842 196 L843 195 L843 194 L844 193 L844 192 L849 187 L850 187 L851 186 Z" fill="none" stroke="black" stroke-width="1" />
<path d="M 525 99 L524 100 L523 100 L521 102 L520 102 L517 105 L516 105 L514 107 L513 107 L511 109 L510 109 L508 111 L507 111 L506 112 L505 112 L504 113 L503 113 L502 114 L501 114 L500 115 L499 115 L498 116 L497 116 L495 118 L494 118 L493 119 L492 119 L491 120 L490 120 L488 122 L487 122 L486 123 L485 123 L484 124 L483 124 L482 125 L481 125 L480 126 L479 126 L478 127 L477 127 L476 128 L475 128 L474 129 L473 129 L468 134 L467 134 L466 135 L465 135 L464 136 L463 136 L462 137 L461 137 L460 138 L459 138 L458 139 L457 139 L456 140 L455 139 L455 138 L457 136 L457 135 L460 132 L460 131 L462 129 L462 126 L460 124 L458 124 L458 125 L456 127 L456 128 L452 132 L452 133 L449 136 L449 137 L440 146 L439 146 L438 147 L437 147 L437 148 L435 150 L435 151 L432 154 L431 154 L430 155 L428 155 L427 154 L427 153 L424 153 L423 154 L422 154 L420 156 L419 156 L419 157 L418 158 L418 159 L414 163 L413 163 L412 164 L411 164 L408 161 L407 162 L406 162 L405 163 L404 163 L400 167 L400 169 L398 171 L397 171 L396 172 L395 172 L394 173 L393 173 L391 171 L391 170 L390 170 L389 171 L388 171 L387 172 L386 172 L385 173 L384 173 L383 174 L383 175 L382 176 L382 177 L381 178 L381 179 L380 180 L380 182 L381 183 L381 185 L382 186 L382 187 L381 188 L382 189 L383 189 L385 191 L385 192 L386 193 L386 195 L385 196 L385 198 L388 198 L389 199 L389 200 L391 202 L395 202 L396 203 L398 203 L399 202 L401 202 L402 201 L403 201 L404 200 L405 200 L405 197 L407 195 L408 195 L409 194 L418 194 L419 193 L420 193 L421 192 L422 192 L423 191 L423 190 L422 189 L424 187 L425 187 L426 186 L427 186 L428 185 L431 185 L432 186 L434 186 L435 185 L436 185 L437 184 L438 184 L439 183 L440 183 L440 180 L442 178 L443 178 L444 177 L445 177 L446 176 L447 176 L448 177 L452 177 L453 176 L454 176 L455 175 L457 175 L458 174 L482 174 L483 173 L482 172 L482 171 L481 170 L481 169 L470 169 L469 168 L469 167 L471 165 L472 165 L473 164 L474 164 L475 163 L476 163 L477 162 L478 162 L479 161 L480 161 L481 160 L482 160 L483 159 L488 159 L490 157 L491 157 L492 156 L493 156 L494 155 L495 155 L496 154 L497 154 L498 153 L500 153 L501 152 L502 152 L503 151 L504 151 L505 150 L507 150 L509 148 L511 148 L512 147 L513 147 L514 146 L515 146 L516 145 L517 145 L519 143 L520 143 L521 142 L522 142 L523 141 L525 141 L526 140 L528 140 L529 139 L531 139 L532 138 L533 138 L534 137 L536 137 L537 136 L539 136 L539 129 L538 128 L538 126 L537 125 L537 122 L535 120 L535 119 L534 118 L534 117 L533 116 L533 114 L532 113 L532 112 L531 111 L531 110 L530 109 L530 108 L528 106 L528 105 L526 103 L526 101 L525 100 Z" fill="none" stroke="black" stroke-width="1" />
<path d="M 814 74 L814 76 L815 76 L817 78 L817 79 L818 80 L820 80 L826 86 L826 91 L828 91 L830 89 L831 89 L832 90 L833 90 L836 93 L836 99 L837 99 L840 96 L841 96 L842 97 L843 97 L844 98 L845 98 L847 100 L847 104 L849 104 L851 102 L854 102 L855 103 L856 103 L858 105 L858 110 L859 110 L861 108 L862 108 L863 107 L865 107 L866 108 L867 108 L868 109 L869 109 L870 110 L870 115 L871 114 L872 114 L874 112 L876 112 L877 113 L878 113 L879 114 L880 114 L881 115 L881 121 L882 121 L882 120 L884 118 L885 118 L886 117 L887 118 L889 118 L890 119 L891 119 L893 121 L893 124 L892 125 L892 126 L893 126 L895 124 L896 124 L897 123 L900 123 L901 124 L902 124 L904 126 L904 131 L905 131 L905 130 L906 129 L907 129 L908 128 L911 128 L912 129 L913 129 L914 130 L915 130 L916 131 L916 134 L915 135 L915 136 L916 136 L916 135 L917 134 L919 134 L920 133 L921 133 L922 134 L924 134 L927 137 L927 142 L930 139 L931 139 L932 138 L933 139 L934 139 L935 140 L937 140 L939 142 L939 147 L943 143 L944 144 L946 144 L947 145 L948 145 L951 148 L950 149 L951 150 L955 150 L956 151 L958 151 L960 153 L961 153 L962 154 L963 154 L964 155 L966 155 L967 156 L968 156 L969 157 L970 157 L971 158 L972 158 L973 159 L974 159 L975 160 L976 160 L977 161 L979 161 L980 162 L981 162 L982 163 L983 163 L984 164 L985 164 L986 165 L987 165 L988 166 L989 166 L990 167 L991 167 L992 168 L993 168 L994 169 L996 169 L997 170 L998 170 L999 171 L1000 171 L1001 172 L1002 172 L1003 173 L1004 173 L1005 174 L1006 174 L1007 175 L1008 175 L1009 176 L1009 177 L1010 178 L1010 182 L1009 183 L1009 184 L1008 185 L1009 184 L1009 183 L1010 182 L1011 182 L1012 183 L1011 184 L1011 185 L1009 187 L1009 188 L1006 191 L1007 192 L1007 193 L1009 195 L1011 195 L1012 196 L1014 196 L1015 195 L1017 195 L1018 194 L1019 194 L1020 193 L1021 193 L1023 191 L1024 191 L1031 184 L1031 181 L1033 179 L1033 178 L1037 174 L1037 173 L1038 172 L1038 170 L1039 169 L1039 167 L1040 166 L1040 164 L1041 163 L1041 153 L1040 152 L1040 151 L1039 150 L1039 149 L1037 147 L1036 147 L1035 146 L1032 146 L1031 147 L1030 147 L1029 148 L1030 149 L1029 150 L1029 152 L1028 153 L1028 154 L1027 155 L1027 156 L1026 157 L1025 156 L1025 154 L1023 156 L1022 156 L1021 157 L1017 157 L1016 156 L1015 156 L1014 155 L1013 155 L1012 154 L1010 154 L1009 153 L1008 153 L1007 152 L1006 152 L1005 151 L1004 151 L1003 150 L1001 150 L999 148 L997 148 L996 147 L995 147 L994 146 L993 146 L992 145 L991 145 L990 144 L989 144 L988 143 L986 143 L985 142 L984 142 L983 141 L982 141 L981 140 L979 140 L978 139 L977 139 L976 138 L975 138 L974 137 L973 137 L972 136 L971 136 L970 135 L969 135 L968 134 L967 134 L966 133 L964 133 L963 132 L960 132 L959 131 L958 131 L957 130 L957 126 L955 126 L952 129 L951 128 L949 128 L947 126 L946 126 L945 125 L945 123 L946 122 L946 119 L943 122 L942 122 L941 123 L940 123 L939 122 L938 122 L937 121 L936 121 L934 119 L934 114 L931 117 L930 117 L929 118 L928 117 L927 117 L926 116 L925 116 L924 115 L923 115 L922 114 L922 109 L919 112 L916 112 L915 111 L914 111 L913 110 L912 110 L911 109 L911 103 L907 107 L905 107 L904 106 L903 106 L902 105 L901 105 L899 103 L899 100 L900 99 L900 98 L899 98 L895 102 L894 102 L893 101 L892 101 L891 100 L890 100 L889 99 L888 99 L887 98 L887 97 L888 96 L888 93 L886 95 L885 95 L884 96 L881 96 L880 95 L879 95 L878 94 L877 94 L876 93 L876 88 L873 91 L870 91 L869 90 L868 90 L867 89 L866 89 L865 88 L865 83 L864 83 L861 86 L859 86 L858 85 L857 85 L856 84 L855 84 L853 82 L853 79 L854 78 L854 77 L853 77 L853 78 L851 80 L850 80 L849 81 L846 81 L845 80 L843 80 L841 78 L841 74 L838 77 L837 77 L836 78 L835 78 L834 77 L830 77 L827 74 L826 74 L825 75 L819 75 L818 74 Z" fill="none" stroke="black" stroke-width="1" />
<path d="M 927 139 L928 138 L929 139 L929 140 L928 141 L927 140 Z" fill="none" stroke="black" stroke-width="1" />
<path d="M 893 123 L894 122 L895 123 L895 124 L894 125 L893 124 Z" fill="none" stroke="black" stroke-width="1" />
<path d="M 944 121 L945 120 L946 121 L945 122 Z" fill="none" stroke="black" stroke-width="1" />
<path d="M 702 57 L701 58 L699 58 L698 59 L697 59 L696 60 L695 60 L693 62 L693 63 L692 64 L692 65 L691 66 L691 67 L690 68 L690 71 L689 72 L689 73 L688 74 L688 75 L686 77 L686 78 L685 79 L685 80 L684 81 L684 82 L683 83 L683 84 L682 85 L682 88 L681 89 L681 90 L680 91 L680 92 L678 94 L678 95 L677 96 L677 97 L676 98 L676 99 L675 100 L675 101 L674 102 L674 105 L673 106 L673 107 L672 108 L672 109 L671 110 L671 111 L669 113 L669 114 L668 115 L668 117 L667 118 L667 119 L666 120 L666 122 L665 123 L665 124 L656 133 L656 134 L649 141 L649 144 L651 146 L652 146 L653 147 L653 148 L652 149 L652 150 L651 151 L651 153 L650 154 L650 155 L649 156 L649 157 L648 158 L648 159 L647 160 L647 161 L646 162 L646 163 L645 164 L645 166 L644 167 L644 168 L642 170 L642 171 L641 172 L641 173 L640 174 L640 175 L639 176 L639 177 L638 178 L638 179 L637 180 L637 181 L636 182 L636 183 L635 184 L635 185 L634 186 L634 187 L633 188 L633 189 L632 190 L632 191 L631 192 L631 193 L630 194 L630 195 L629 196 L629 197 L628 198 L628 199 L627 200 L627 201 L626 202 L626 203 L627 204 L627 207 L628 207 L629 208 L630 208 L631 209 L632 209 L633 210 L634 210 L636 212 L637 212 L639 214 L640 214 L641 215 L643 215 L644 216 L646 216 L647 217 L648 217 L649 218 L650 218 L652 220 L652 219 L653 218 L655 218 L655 217 L656 216 L656 215 L657 214 L657 213 L658 212 L658 211 L659 210 L659 209 L660 208 L660 207 L661 206 L661 205 L662 204 L662 203 L663 202 L663 201 L664 200 L664 199 L665 198 L665 197 L666 196 L666 195 L667 194 L667 193 L668 192 L668 191 L669 190 L669 189 L670 188 L670 187 L671 186 L671 184 L672 183 L672 182 L673 181 L673 179 L674 178 L674 177 L675 176 L675 175 L676 174 L676 173 L677 172 L677 171 L678 170 L678 169 L679 168 L679 166 L680 165 L680 164 L681 163 L681 162 L682 161 L682 160 L683 159 L683 158 L684 157 L684 156 L685 155 L685 154 L686 153 L686 152 L687 151 L688 151 L691 154 L693 154 L693 145 L694 144 L694 135 L695 134 L695 132 L696 131 L696 130 L697 129 L697 128 L698 127 L698 125 L699 124 L699 123 L700 122 L700 121 L701 120 L701 119 L702 118 L702 117 L703 116 L703 115 L704 114 L704 113 L705 112 L705 111 L706 110 L706 108 L707 107 L707 106 L708 105 L708 104 L709 103 L709 102 L710 101 L710 100 L711 99 L711 98 L712 97 L712 96 L713 95 L713 94 L714 93 L714 90 L715 89 L715 88 L716 87 L716 86 L718 84 L718 83 L719 82 L719 81 L720 80 L720 78 L721 77 L721 69 L720 68 L720 66 L719 65 L719 64 L718 64 L715 61 L714 61 L713 60 L712 60 L711 59 L710 59 L709 58 L703 58 Z" fill="none" stroke="black" stroke-width="1" />
<path d="M 142 53 L141 54 L132 54 L131 55 L128 55 L127 56 L125 56 L124 57 L123 57 L122 58 L120 58 L119 59 L116 59 L116 63 L115 64 L115 67 L116 68 L116 70 L117 71 L117 73 L118 74 L118 76 L119 77 L119 78 L120 79 L120 81 L121 82 L121 84 L122 85 L122 86 L123 87 L123 89 L124 90 L124 92 L125 93 L125 94 L126 95 L126 97 L127 98 L127 99 L128 100 L128 102 L129 103 L129 104 L130 105 L130 106 L131 107 L131 109 L132 110 L132 111 L133 112 L133 114 L134 115 L134 117 L135 118 L135 120 L136 121 L136 122 L137 123 L137 125 L138 126 L138 127 L139 128 L139 131 L140 132 L140 134 L139 135 L138 135 L138 138 L146 146 L146 150 L147 151 L147 152 L148 153 L148 155 L149 156 L149 157 L151 159 L151 161 L152 162 L152 166 L153 167 L153 169 L154 170 L154 172 L155 173 L155 174 L157 176 L157 177 L158 178 L158 180 L159 181 L159 186 L160 187 L160 188 L161 189 L161 191 L162 192 L162 193 L164 195 L164 197 L165 198 L165 201 L166 202 L166 205 L167 206 L167 207 L168 208 L168 209 L169 210 L169 211 L170 211 L173 214 L174 214 L175 215 L176 215 L178 217 L180 217 L181 216 L186 216 L187 215 L189 215 L190 214 L191 214 L192 213 L192 212 L193 211 L195 211 L196 210 L196 209 L197 208 L197 206 L198 205 L198 200 L197 199 L197 197 L196 196 L196 195 L195 194 L195 193 L193 191 L193 187 L192 186 L192 184 L191 183 L191 181 L190 180 L190 178 L189 177 L189 176 L187 174 L187 173 L186 172 L186 168 L185 167 L185 165 L184 164 L184 162 L183 161 L183 159 L180 156 L180 154 L179 153 L179 149 L178 148 L178 146 L177 145 L177 143 L176 142 L176 141 L175 140 L175 139 L173 137 L173 132 L172 131 L172 129 L171 128 L171 112 L169 112 L168 111 L165 111 L164 110 L164 108 L163 107 L163 106 L162 105 L162 103 L161 102 L161 100 L160 99 L160 96 L159 95 L159 93 L158 92 L158 90 L157 89 L157 87 L156 86 L156 82 L155 81 L155 79 L154 78 L154 77 L152 75 L152 74 L151 73 L151 72 L150 71 L150 69 L149 68 L149 67 L148 66 L148 64 L147 63 L147 62 L146 61 L146 60 L145 59 L145 57 L144 56 L144 54 L143 53 Z" fill="none" stroke="black" stroke-width="1" />
</svg>
